<?xml version="1.0" encoding="utf-8"?>
<!-- Generator: Adobe Illustrator 27.0.0, SVG Export Plug-In . SVG Version: 6.00 Build 0)  -->
<svg version="1.1" id="圖層_1" xmlns="http://www.w3.org/2000/svg" xmlns:xlink="http://www.w3.org/1999/xlink" x="0px" y="0px"
	 viewBox="0 0 150 150" style="enable-background:new 0 0 150 150;" xml:space="preserve">
<style type="text/css">
	.st0{fill:#FFFFFF;}
	.st1{clip-path:url(#SVGID_00000070119430875466014930000001551819133191855029_);}
	.st2{fill:#EDE4C6;}
	.st3{fill:#06436B;}
	.st4{fill:#D65149;}
	.st5{clip-path:url(#SVGID_00000070119430875466014930000001551819133191855029_);fill:#06436B;}
	.st6{clip-path:url(#SVGID_00000049206760154809917730000010728121798721719685_);fill:#FFFFFF;}
</style>
<g>
	<rect class="st0" width="150" height="150"/>
	<g>
		<defs>
			<rect id="SVGID_1_" width="150" height="150"/>
		</defs>
		<clipPath id="SVGID_00000158722091383936340060000014914285572016960406_">
			<use xlink:href="#SVGID_1_"  style="overflow:visible;"/>
		</clipPath>
		<g style="clip-path:url(#SVGID_00000158722091383936340060000014914285572016960406_);">
			<polygon class="st2" points="75,116.04 144.49,70.41 5.51,70.41 			"/>
			<polygon class="st2" points="75,29.77 136.88,70.41 144.49,70.41 75,24.78 5.51,70.41 13.12,70.41 			"/>
			<g>
				<path class="st3" d="M53.12,60.25c0.36,0.29,0.62,0.59,0.76,0.92c0.14,0.32,0.21,0.64,0.21,0.96c0,0.57-0.19,0.99-0.57,1.25
					c-0.38,0.26-0.77,0.42-1.19,0.47c-0.36,0.03-1.01,0.06-1.93,0.1c-0.92,0.04-2.03,0.07-3.32,0.1c-1.29,0.03-2.65,0.05-4.1,0.06
					c-1.44,0.01-2.87,0.03-4.27,0.04c-1.4,0.01-2.7,0.02-3.88,0.02c-1.18,0-2.16,0.01-2.93,0.02c-0.77,0.01-1.22,0.02-1.35,0.02
					c-0.34,0-0.62,0.03-0.86,0.08c-0.23,0.05-0.36,0.19-0.39,0.43c-0.03,0.34,0.12,0.53,0.43,0.57c0.31,0.04,0.64,0.07,0.98,0.1
					c0.1,0,0.57,0,1.38,0s1.87,0,3.14,0c1.27,0,2.67,0,4.17,0c1.51,0,3.01,0,4.51,0c1.5,0,2.86,0,4.1,0c1.23,0,2.61,0,4.12,0
					c0.05,1.27,0.08,2.39,0.08,3.34c0,0.95-0.02,1.9-0.06,2.85c-0.04,0.95-0.14,1.72-0.29,2.32c-0.31,1.2-0.7,2.15-1.15,2.85
					c-0.46,0.7-1.02,1.16-1.7,1.37c-0.62,0.21-1.27,0.27-1.93,0.19c-0.66-0.08-1.35-0.34-2.05-0.78c-0.57-0.36-1.34-0.94-2.3-1.72
					c0.7-0.57,1.25-1.07,1.64-1.5c0.39-0.43,0.64-0.85,0.74-1.27c0.1-0.41,0.12-0.91,0.06-1.48c-0.07-0.57-0.29-1.08-0.68-1.52
					c-0.03-0.05-0.11-0.11-0.25-0.18c-0.14-0.07-0.34-0.07-0.6-0.02c-0.44,0.1-0.65,0.58-0.62,1.44c0.03,0.49,0.04,0.99,0.04,1.48
					c0,0.49-0.04,0.96-0.12,1.41c-0.13,0.73-0.34,1.27-0.62,1.62c-0.29,0.35-0.63,0.6-1.03,0.74c-0.4,0.14-0.86,0.28-1.38,0.41
					c-0.34,0.08-0.92,0.14-1.74,0.19c-0.82,0.05-1.79,0.08-2.93,0.1c-1.13,0.01-2.31,0.02-3.53,0.02c-1.22,0-2.42-0.02-3.59-0.06
					c-1.17-0.04-2.21-0.09-3.12-0.15c-0.91-0.07-1.6-0.14-2.07-0.21c-0.21-0.05-0.59-0.15-1.13-0.29c-0.55-0.14-1.05-0.43-1.52-0.86
					c-0.47-0.43-0.74-1.07-0.82-1.93c-0.03-0.21-0.05-0.6-0.06-1.17c-0.01-0.57-0.02-1.2-0.02-1.87c0-0.68,0-1.49,0-2.46
					c0.29-0.08,0.73-0.15,1.35-0.21c0.61-0.07,1.24-0.06,1.89,0.02c0.65,0.08,1.16,0.3,1.52,0.66c0.21,0.21,0.37,0.49,0.49,0.84
					c0.12,0.35,0.18,0.76,0.18,1.23c0,0.81,0.09,1.32,0.27,1.56c0.18,0.23,0.69,0.35,1.52,0.35c0.65-0.03,1.13-0.12,1.44-0.29
					c0.31-0.17,0.51-0.55,0.59-1.15c0-0.1,0.01-0.23,0.02-0.37c0.01-0.14-0.01-0.29-0.06-0.45c-0.03-0.29-0.27-0.61-0.72-0.97
					c-0.46-0.36-1.03-0.64-1.74-0.82c-1.14-0.29-2.03-0.72-2.65-1.31c-0.62-0.58-1.05-1.27-1.29-2.05
					c-0.23-0.78-0.35-1.57-0.35-2.38L21.8,45.39h8.62c0.21,0,0.46-0.04,0.76-0.12c0.3-0.08,0.54-0.2,0.72-0.35
					c0.18-0.13,0.4-0.36,0.64-0.7c0.25-0.34,0.49-0.69,0.74-1.05c0.25-0.36,0.53-0.8,0.84-1.32c0.94,0.1,1.73,0.21,2.38,0.31
					c0.65,0.1,1.28,0.23,1.89,0.39c0.61,0.16,1.06,0.35,1.35,0.59c0.21,0.16,0.31,0.32,0.31,0.51c0,0.16-0.02,0.33-0.06,0.53
					c-0.04,0.2-0.03,0.4,0.02,0.6c0.05,0.13,0.19,0.27,0.41,0.41c0.22,0.14,0.5,0.21,0.84,0.21h9.91c0.03,1.09,0.04,2.07,0.04,2.92
					c0,0.86-0.01,1.76-0.02,2.69c-0.01,0.94-0.04,1.8-0.08,2.59c-0.04,0.79-0.11,1.4-0.21,1.81c-0.18,0.88-0.49,1.55-0.94,2.01
					c-0.44,0.46-0.94,0.78-1.48,0.98c-0.55,0.19-1.08,0.34-1.6,0.45c-0.18,0.03-0.69,0.05-1.52,0.08c-0.83,0.03-1.85,0.05-3.06,0.08
					c-1.21,0.03-2.48,0.04-3.82,0.04c-1.34,0-2.6,0-3.78,0c-1.18,0-2.17,0-2.96,0c-0.79,0-1.24,0-1.35,0
					c-0.34,0-0.65,0.04-0.94,0.12c-0.29,0.08-0.43,0.25-0.43,0.51c0,0.26,0.1,0.42,0.29,0.49c0.2,0.07,0.54,0.1,1.03,0.1H53.12z
					 M30.14,49.01c-0.18,0.03-0.4,0.06-0.66,0.1c-0.26,0.04-0.39,0.24-0.39,0.6c0,0.34,0.14,0.55,0.41,0.62
					c0.27,0.08,0.49,0.12,0.64,0.12c0.05,0,0.39,0,1.01,0c0.62,0,1.41,0.01,2.36,0.02c0.95,0.01,1.96,0.02,3.02,0.02
					c1.07,0,2.07,0,3.02,0c0.95,0,1.74-0.01,2.38-0.02c0.64-0.01,0.99-0.02,1.07-0.02c0.23-0.05,0.46-0.12,0.68-0.19
					c0.22-0.08,0.33-0.25,0.33-0.51c0-0.26-0.1-0.44-0.29-0.55c-0.2-0.1-0.44-0.17-0.72-0.2c-0.08,0-0.44-0.01-1.09-0.02
					c-0.65-0.01-1.45-0.02-2.4-0.02c-0.95,0-1.96,0-3.02,0c-1.07,0-2.07,0-3,0c-0.94,0-1.72,0.01-2.34,0.02
					C30.53,49.01,30.19,49.01,30.14,49.01z M30.14,53.7c-0.18,0.03-0.4,0.05-0.66,0.08c-0.26,0.03-0.39,0.22-0.39,0.59
					c0,0.36,0.14,0.58,0.41,0.66c0.27,0.08,0.49,0.12,0.64,0.12c0.05,0,0.39,0,1.01,0c0.62,0,1.41,0,2.36,0c0.95,0,1.96,0,3.02,0
					c1.07,0,2.07,0,3.02,0c0.95,0,1.74,0,2.38,0c0.64,0,0.99,0,1.07,0c0.23-0.05,0.46-0.12,0.68-0.2c0.22-0.08,0.33-0.25,0.33-0.51
					c0-0.29-0.1-0.48-0.29-0.59c-0.2-0.1-0.44-0.15-0.72-0.15c-0.08,0-0.44-0.01-1.09-0.02c-0.65-0.01-1.45-0.02-2.4-0.02
					c-0.95,0-1.96,0-3.02,0c-1.07,0-2.07,0-3,0c-0.94,0-1.72,0.01-2.34,0.02C30.53,53.69,30.19,53.7,30.14,53.7z M34.36,70.47
					c-0.03,0.26-0.04,0.5-0.04,0.72c0,0.22,0.01,0.42,0.04,0.6c0.08,0.31,0.26,0.56,0.55,0.74c0.29,0.18,0.7,0.26,1.25,0.23
					c0.23,0,0.55-0.09,0.94-0.27c0.39-0.18,0.62-0.52,0.7-1.01c0.05-0.26,0.05-0.55,0-0.86c-0.05-0.29-0.18-0.51-0.39-0.68
					c-0.21-0.17-0.39-0.27-0.55-0.29c-0.49-0.05-1.01-0.05-1.56,0c-0.18,0.03-0.38,0.1-0.59,0.23
					C34.5,70.01,34.38,70.21,34.36,70.47z"/>
				<path class="st3" d="M93.18,64.77c0.13,0.55,0.06,1.1-0.21,1.68c-0.27,0.57-0.9,1.03-1.89,1.37c-0.1,0.03-0.23,0.04-0.39,0.06
					c-0.16,0.01-0.66,0.08-1.52,0.21c-0.39,0.05-0.78,0.25-1.17,0.6c-0.39,0.35-0.58,0.86-0.58,1.54v3.98
					c0,0.65-0.18,1.32-0.53,2.01c-0.35,0.69-0.84,1.24-1.46,1.66c-0.57,0.34-1.24,0.52-2.01,0.55c-0.77,0.03-1.61-0.21-2.52-0.7
					c-0.68-0.37-1.39-0.85-2.15-1.44c0.44-0.47,0.8-0.89,1.07-1.27c0.27-0.38,0.46-0.77,0.57-1.19c0.03-0.16,0.06-0.47,0.1-0.96
					c0.04-0.48,0.06-0.99,0.08-1.52c0.01-0.53-0.01-0.96-0.06-1.27c-0.05-0.57-0.29-1.03-0.72-1.37c-0.43-0.34-0.98-0.52-1.66-0.55
					c-0.1-0.03-0.53-0.04-1.27-0.04c-0.74,0-1.68-0.01-2.81-0.02c-1.13-0.01-2.32-0.03-3.57-0.06c-0.26,0-0.6,0.03-1.01,0.08
					c-0.42,0.05-0.83,0.2-1.25,0.43c-0.42,0.23-0.75,0.64-1.01,1.21c-0.23,0.49-0.46,0.93-0.68,1.31c-0.22,0.38-0.41,0.71-0.57,0.99
					c-0.49,0.83-1.05,1.48-1.68,1.95c-0.62,0.47-1.27,0.79-1.95,0.97c-0.81,0.18-1.61,0.19-2.42,0.02
					c-0.81-0.17-1.51-0.45-2.11-0.84c0.44-0.83,0.81-1.54,1.11-2.13c0.3-0.58,0.58-1.15,0.84-1.7c0.26-0.54,0.44-0.93,0.55-1.17
					c0.21-0.49,0.22-0.96,0.04-1.38c-0.18-0.43-0.38-0.69-0.59-0.8c-0.6-0.36-1.07-0.86-1.42-1.48c-0.35-0.62-0.5-1.48-0.45-2.57
					h4.37c0.34,0,0.68-0.08,1.01-0.25c0.34-0.17,0.53-0.38,0.59-0.64c0.08-0.23-0.07-0.4-0.43-0.51c-0.36-0.1-0.76-0.17-1.19-0.19
					c-0.43-0.03-0.74-0.04-0.92-0.04c-0.68-0.05-1.32-0.22-1.93-0.51c-0.61-0.29-1.08-0.75-1.4-1.38c-0.33-0.64-0.42-1.49-0.29-2.55
					h7.65c0.36,0,0.66-0.02,0.9-0.06c0.23-0.04,0.4-0.19,0.51-0.45c0.1-0.18,0.05-0.31-0.16-0.39c-0.21-0.08-0.44-0.14-0.68-0.2
					c-0.25-0.05-0.41-0.08-0.49-0.08c-0.44-0.03-0.92-0.14-1.44-0.35c-0.52-0.21-0.95-0.52-1.29-0.94
					c-0.26-0.36-0.42-0.79-0.49-1.29c-0.07-0.49,0.06-1.09,0.37-1.79h5.93c0.29,0,0.52-0.08,0.7-0.24c0.18-0.15,0.31-0.29,0.39-0.39
					c0.05-0.13,0.05-0.24-0.02-0.33c-0.07-0.09-0.27-0.14-0.6-0.14c-0.16,0-0.54,0-1.15,0c-0.61,0-1.29-0.01-2.03-0.02
					c-0.74-0.01-1.4-0.03-1.99-0.04c-0.59-0.01-0.94-0.02-1.07-0.02c-0.36-0.03-0.77-0.11-1.21-0.25c-0.44-0.14-0.83-0.37-1.17-0.68
					c-0.42-0.34-0.69-0.79-0.82-1.37c-0.13-0.57-0.03-1.26,0.31-2.07l10.57-0.04c0.65,0,1.2-0.23,1.66-0.68
					c0.45-0.46,0.76-0.85,0.92-1.19l0.7-1.44c1.14,0.1,2.09,0.23,2.83,0.39s1.38,0.39,1.93,0.7c0.36,0.18,0.63,0.41,0.8,0.68
					c0.17,0.27,0.18,0.59,0.02,0.96c-0.03,0.08,0.04,0.2,0.21,0.35c0.17,0.16,0.5,0.23,0.99,0.23H90.8c0.36,0.26,0.63,0.57,0.8,0.94
					c0.17,0.36,0.25,0.73,0.25,1.09c0,0.6-0.23,1.14-0.68,1.62c-0.46,0.48-1.09,0.75-1.89,0.8c-0.26,0-0.79,0.01-1.58,0.02
					c-0.79,0.01-1.7,0.02-2.71,0.02s-2.02,0.01-3.02,0.02c-1,0.01-1.87,0.02-2.59,0.02c-0.73,0-1.18,0-1.37,0
					c-0.42,0-0.73,0.06-0.96,0.18c-0.22,0.12-0.36,0.21-0.41,0.29c-0.03,0.1,0.03,0.22,0.16,0.35c0.13,0.13,0.39,0.2,0.78,0.2h11.08
					c0.73,0.39,1.13,0.94,1.21,1.64c0.08,0.65-0.14,1.27-0.64,1.85c-0.51,0.59-1.2,0.9-2.09,0.96c-0.31,0.03-0.88,0.04-1.7,0.04
					c-0.82,0-1.76,0-2.81,0c-1.05,0-2.09,0-3.12,0c-1.03,0-1.91,0-2.65,0c-0.74,0-1.19,0-1.35,0c-0.39,0.03-0.72,0.07-0.98,0.12
					c-0.26,0.05-0.44,0.17-0.55,0.35c-0.05,0.1,0.01,0.24,0.18,0.39c0.17,0.15,0.54,0.23,1.11,0.23H91.5
					c0.86,0.44,1.35,1.03,1.48,1.75c0.08,0.55-0.1,1.06-0.55,1.54c-0.44,0.48-1.12,0.79-2.03,0.92c-0.26,0.03-0.72,0.07-1.37,0.12
					c-0.23,0-0.5,0.07-0.8,0.19c-0.3,0.13-0.45,0.35-0.45,0.66c0,0.31,0.24,0.54,0.72,0.68c0.48,0.14,0.93,0.21,1.35,0.21h1.91
					c0.29,0.18,0.57,0.43,0.84,0.74C92.88,63.99,93.07,64.36,93.18,64.77z M72.19,68.91c1.04,0.05,1.83,0.43,2.38,1.13
					c0.55,0.7,0.75,1.46,0.62,2.26c-0.1,0.81-0.44,1.52-0.99,2.14c-0.56,0.63-1.52,0.92-2.87,0.9c-0.78,0-1.51-0.32-2.18-0.98
					c-0.68-0.65-0.98-1.53-0.9-2.65c0.05-0.91,0.46-1.62,1.23-2.13C70.25,69.08,71.15,68.86,72.19,68.91z M78.39,62.94
					c0.68,0,1.22-0.24,1.64-0.7c0.13-0.13,0.16-0.31,0.08-0.53c-0.08-0.22-0.36-0.34-0.86-0.37c-0.23,0-0.67,0-1.31,0
					c-0.64,0-1.33,0.01-2.07,0.02c-0.74,0.01-1.43,0.03-2.07,0.04c-0.64,0.01-1.07,0.02-1.31,0.02c-0.49,0-0.85,0.09-1.05,0.25
					c-0.21,0.17-0.34,0.32-0.39,0.45c-0.05,0.13-0.04,0.29,0.04,0.47c0.08,0.18,0.36,0.3,0.86,0.35c0.26,0.03,0.71,0.04,1.35,0.04
					c0.64,0,1.32,0,2.05,0c0.73,0,1.38-0.01,1.97-0.02C77.91,62.95,78.26,62.94,78.39,62.94z"/>
				<path class="st3" d="M130.62,43.75v30.07c0,0.34-0.1,0.81-0.29,1.42c-0.2,0.61-0.5,1.2-0.92,1.77
					c-0.42,0.57-0.96,0.98-1.64,1.21c-0.44,0.13-0.93,0.17-1.46,0.12c-0.53-0.05-1.13-0.25-1.78-0.59
					c-0.55-0.31-1.09-0.64-1.62-0.97c-0.53-0.34-1.16-0.76-1.89-1.25c0.55-0.36,1-0.72,1.37-1.07c0.36-0.35,0.68-0.77,0.96-1.25
					c0.27-0.48,0.41-1.02,0.41-1.62V53.42c0-0.83-0.23-1.61-0.68-2.34c-0.46-0.73-1.29-1.09-2.52-1.09c-1.46,0-3.02,0-4.7,0
					c-1.68,0-3.34,0-4.97,0s-3.16-0.01-4.56-0.04c-1.4-0.03-2.57-0.06-3.51-0.1c-0.94-0.04-1.53-0.1-1.79-0.18
					c-0.44-0.13-0.93-0.35-1.46-0.66c-0.53-0.31-0.99-0.86-1.38-1.66c-0.39-0.79-0.61-1.97-0.66-3.53L130.62,43.75z M120.4,53.19
					c0.57,0.6,0.92,1.16,1.03,1.68c0.12,0.52,0.11,1-0.02,1.44c-0.18,0.57-0.51,1.03-0.98,1.37c-0.47,0.34-0.88,0.57-1.25,0.7
					c-0.21,0.05-0.7,0.1-1.46,0.16c-0.77,0.05-1.7,0.08-2.81,0.1c-1.11,0.01-2.27,0.02-3.49,0.02c-1.22,0-2.39-0.01-3.49-0.04
					c-1.11-0.02-2.05-0.06-2.85-0.1c-0.79-0.04-1.31-0.08-1.54-0.14c-0.44-0.1-0.92-0.31-1.44-0.62c-0.52-0.31-0.98-0.82-1.37-1.54
					c-0.39-0.71-0.62-1.72-0.7-3.02H120.4z M102.03,60.4h17.4c0.08,0.34,0.13,0.9,0.16,1.68c0.03,0.78,0.05,1.65,0.06,2.59
					c0.01,0.95,0.02,1.85,0.02,2.69c0,0.85-0.01,1.49-0.04,1.93c-0.03,1.07-0.28,2-0.76,2.79c-0.48,0.79-1.09,1.31-1.81,1.54
					c-0.65,0.23-1.55,0.41-2.69,0.53c-1.14,0.12-2.35,0.17-3.63,0.16c-1.27-0.01-2.48-0.09-3.61-0.23
					c-1.13-0.14-2.03-0.37-2.71-0.68c-0.55-0.26-1.05-0.73-1.5-1.4c-0.46-0.68-0.75-1.57-0.88-2.69c-0.05-0.47-0.09-1.12-0.12-1.95
					c-0.03-0.83-0.04-1.71-0.04-2.63c0-0.92,0.01-1.78,0.04-2.58C101.94,61.35,101.98,60.77,102.03,60.4z M112.8,68.83
					c0.13-0.16,0.23-0.41,0.29-0.76c0.06-0.35,0.1-0.68,0.1-0.99c-0.03-0.31-0.07-0.66-0.14-1.03c-0.07-0.38-0.25-0.66-0.57-0.84
					c-0.23-0.13-0.59-0.21-1.07-0.23c-0.48-0.03-0.95-0.02-1.4,0.02c-0.46,0.04-0.8,0.12-1.03,0.25c-0.26,0.13-0.43,0.36-0.51,0.68
					c-0.08,0.32-0.12,0.7-0.12,1.11c0,0.49,0.05,0.88,0.14,1.15c0.09,0.27,0.19,0.49,0.29,0.64c0.23,0.29,0.64,0.47,1.21,0.57
					c0.57,0.09,1.14,0.09,1.7-0.02C112.24,69.27,112.62,69.09,112.8,68.83z"/>
			</g>
			<g>
				<path class="st4" d="M24.36,83.3c0.49,0,0.96,0.08,1.41,0.25c0.45,0.17,0.83,0.4,1.14,0.68c0.31,0.28,0.5,0.58,0.55,0.91
					c0.04,0.22,0.01,0.45-0.09,0.72c-0.1,0.26-0.26,0.49-0.47,0.68c-0.22,0.2-0.48,0.3-0.78,0.32c-0.11,0-0.24-0.01-0.41-0.04
					c-0.17-0.03-0.33-0.07-0.48-0.15c-0.15-0.07-0.28-0.18-0.37-0.32c0.12-0.07,0.21-0.14,0.25-0.21c0.04-0.07,0.05-0.15,0.04-0.22
					c-0.03-0.17-0.13-0.3-0.29-0.41c-0.16-0.11-0.36-0.17-0.59-0.2c-0.13-0.02-0.29-0.01-0.46,0.01s-0.33,0.08-0.48,0.17
					c-0.15,0.1-0.25,0.25-0.3,0.47c-0.03,0.12-0.03,0.26,0.02,0.4c0.05,0.15,0.16,0.28,0.34,0.41c0.18,0.13,0.46,0.24,0.83,0.33
					c0.57,0.13,1.1,0.28,1.6,0.44c0.49,0.16,0.93,0.35,1.3,0.58c0.37,0.23,0.66,0.52,0.86,0.86c0.2,0.34,0.3,0.77,0.28,1.29
					c-0.01,0.34-0.1,0.7-0.27,1.07c-0.17,0.37-0.43,0.72-0.76,1.04c-0.33,0.32-0.74,0.58-1.22,0.78c-0.48,0.2-1.03,0.3-1.64,0.3
					c-0.39,0-0.79-0.03-1.21-0.1c-0.41-0.07-0.81-0.17-1.18-0.31c-0.37-0.14-0.69-0.33-0.98-0.56c-0.25-0.22-0.43-0.49-0.53-0.81
					c-0.1-0.32-0.13-0.65-0.07-0.98c0.06-0.33,0.21-0.61,0.44-0.84c0.24-0.23,0.57-0.36,0.99-0.39c-0.08,0.25-0.04,0.49,0.14,0.73
					c0.18,0.24,0.45,0.44,0.8,0.6c0.36,0.16,0.75,0.26,1.17,0.29c0.44,0.03,0.82,0.02,1.15-0.05c0.33-0.07,0.51-0.2,0.54-0.41
					c0.04-0.25-0.01-0.45-0.15-0.6c-0.14-0.15-0.34-0.26-0.58-0.34c-0.25-0.08-0.52-0.14-0.81-0.2s-0.56-0.11-0.81-0.17
					c-0.33-0.09-0.67-0.21-1-0.35c-0.34-0.15-0.64-0.33-0.92-0.55c-0.28-0.22-0.5-0.5-0.68-0.82c-0.17-0.32-0.27-0.7-0.27-1.13
					c-0.01-0.51,0.1-0.96,0.31-1.35c0.22-0.39,0.51-0.73,0.88-1c0.37-0.27,0.8-0.47,1.27-0.61C23.38,83.37,23.87,83.3,24.36,83.3z"
					/>
				<path class="st4" d="M39.41,92.07c0.01,0.15,0.03,0.3,0.07,0.46c0.04,0.16,0.08,0.3,0.14,0.42c-0.03,0.03-0.12,0.09-0.26,0.17
					c-0.14,0.08-0.31,0.16-0.51,0.22c-0.2,0.07-0.41,0.09-0.63,0.07c-0.32-0.02-0.59-0.16-0.8-0.4c-0.21-0.24-0.32-0.56-0.32-0.94
					c-0.01-0.08-0.01-0.17-0.01-0.26c0-0.09,0-0.21,0-0.35c0.01-0.37-0.07-0.68-0.22-0.95c-0.16-0.27-0.37-0.48-0.63-0.62
					c-0.27-0.14-0.56-0.22-0.87-0.22c-0.46,0-0.85,0.14-1.18,0.41c-0.33,0.27-0.51,0.67-0.54,1.19c0,0.07,0.01,0.22,0.02,0.42
					c0.01,0.21,0.03,0.41,0.06,0.62c0.02,0.21,0.05,0.36,0.07,0.45c-0.09,0.1-0.23,0.2-0.41,0.3s-0.37,0.18-0.57,0.24
					c-0.2,0.06-0.37,0.07-0.52,0.05c-0.22-0.04-0.44-0.19-0.65-0.45s-0.32-0.58-0.32-0.96c0-0.07,0-0.28-0.01-0.63
					c0-0.34-0.01-0.77-0.01-1.29c0-0.51-0.01-1.07-0.01-1.66c0-0.59-0.01-1.18-0.01-1.76c0-0.58-0.01-1.11-0.01-1.59
					c0-0.48-0.01-1.01-0.01-1.59c0.09-0.02,0.25-0.02,0.48-0.01c0.23,0.01,0.47,0.05,0.73,0.11c0.28,0.07,0.54,0.18,0.77,0.34
					c0.23,0.16,0.36,0.39,0.4,0.68c0.02,0.14,0.03,0.29,0.04,0.46c0.01,0.17,0.01,0.37,0.01,0.61c0,0.32,0.07,0.62,0.22,0.9
					c0.15,0.28,0.35,0.5,0.62,0.65c0.26,0.16,0.54,0.23,0.85,0.22c0.44-0.02,0.78-0.16,1.02-0.42c0.24-0.27,0.42-0.65,0.54-1.16
					c0.03-0.14,0.06-0.34,0.07-0.6c0.02-0.26,0.03-0.53,0.03-0.8c0-0.27,0.01-0.6,0.01-0.98c0.09-0.02,0.24-0.02,0.45-0.01
					c0.21,0.01,0.43,0.04,0.66,0.09c0.29,0.06,0.57,0.17,0.83,0.33c0.26,0.16,0.41,0.4,0.44,0.72c0.02,0.16,0.03,0.41,0.04,0.76
					c0.01,0.35,0.01,0.75,0.01,1.21c0,0.46-0.01,0.95-0.02,1.47c-0.01,0.52-0.02,1.03-0.02,1.54c-0.01,0.51-0.01,0.98-0.01,1.42
					C39.4,91.41,39.41,91.77,39.41,92.07z"/>
				<path class="st4" d="M43.7,93.38c-0.36-0.07-0.61-0.31-0.75-0.72c-0.15-0.41-0.22-0.93-0.22-1.54c0-0.07,0-0.26-0.01-0.56
					c0-0.3-0.01-0.67-0.01-1.11c0-0.44-0.01-0.92-0.01-1.44c0-0.51-0.01-1.03-0.02-1.54c-0.01-0.51-0.02-0.99-0.02-1.42
					c-0.01-0.44-0.02-0.79-0.03-1.08c-0.01-0.28-0.02-0.45-0.03-0.51c0.12-0.02,0.32-0.03,0.58-0.02c0.26,0.01,0.53,0.05,0.82,0.12
					s0.54,0.19,0.75,0.35c0.22,0.16,0.34,0.38,0.37,0.67c0.02,0.13,0.03,0.36,0.04,0.68c0.01,0.32,0.01,0.7,0.02,1.13
					c0,0.44,0.01,0.9,0.01,1.39c0,0.49,0,0.97,0,1.45s0,0.92,0,1.32c0,0.4,0,0.74,0.01,1.01c0,0.27,0.01,0.43,0.02,0.49
					c0.02,0.17,0.05,0.3,0.1,0.38c0.05,0.08,0.1,0.18,0.16,0.29c-0.21,0.22-0.46,0.41-0.77,0.55C44.41,93.39,44.07,93.43,43.7,93.38
					z"/>
				<path class="st4" d="M59.04,91.96c0.01,0.17,0.03,0.33,0.07,0.49c0.04,0.16,0.08,0.27,0.14,0.35c-0.07,0.07-0.19,0.16-0.34,0.26
					c-0.15,0.1-0.33,0.18-0.52,0.24c-0.19,0.06-0.4,0.09-0.62,0.08c-0.32-0.02-0.58-0.15-0.78-0.41c-0.19-0.26-0.3-0.58-0.3-0.96
					c0-0.07,0-0.21,0-0.42c0-0.2,0-0.42,0-0.65c0-0.23,0-0.42,0-0.57c0-0.14-0.04-0.28-0.11-0.41c-0.07-0.13-0.15-0.21-0.24-0.24
					c-0.12-0.04-0.23,0.03-0.31,0.22c-0.02,0.04-0.07,0.14-0.16,0.3c-0.09,0.16-0.19,0.35-0.3,0.57c-0.11,0.22-0.22,0.43-0.31,0.65
					c-0.1,0.22-0.16,0.4-0.19,0.55c-0.03,0.15-0.01,0.25,0.06,0.28c-0.03,0.08-0.09,0.2-0.18,0.36c-0.09,0.16-0.23,0.29-0.42,0.4
					c-0.19,0.11-0.47,0.16-0.83,0.13c-0.19-0.02-0.44-0.13-0.73-0.35c-0.3-0.22-0.58-0.61-0.86-1.18c-0.26-0.55-0.47-0.92-0.63-1.11
					c-0.16-0.19-0.28-0.28-0.35-0.27c-0.07,0.01-0.12,0.05-0.16,0.14c-0.04,0.08-0.07,0.2-0.11,0.35c-0.02,0.07-0.03,0.2-0.03,0.37
					c0,0.17,0.01,0.37,0.03,0.58c0.02,0.22,0.05,0.42,0.09,0.61c0.05,0.19,0.11,0.34,0.18,0.44c-0.07,0.04-0.18,0.11-0.35,0.21
					c-0.17,0.1-0.36,0.19-0.57,0.27c-0.21,0.08-0.42,0.12-0.62,0.12c-0.3-0.01-0.55-0.09-0.75-0.24s-0.32-0.46-0.36-0.91
					c-0.01-0.07-0.01-0.29-0.01-0.63s0-0.79,0-1.32c0-0.53,0-1.1,0-1.71c0-0.61,0-1.21,0-1.81c0-0.6,0-1.14,0.01-1.64
					c0-0.5,0.01-1.04,0.01-1.64c0.09-0.02,0.24-0.02,0.46-0.01c0.22,0.01,0.45,0.04,0.71,0.1c0.26,0.06,0.49,0.15,0.71,0.28
					c0.22,0.13,0.36,0.31,0.45,0.54c0.16,0.31,0.3,0.58,0.44,0.83c0.13,0.25,0.28,0.51,0.43,0.79c0.15,0.28,0.3,0.56,0.45,0.83
					c0.14,0.27,0.27,0.51,0.39,0.72c0.11,0.21,0.19,0.35,0.23,0.44c0.14,0.24,0.28,0.41,0.4,0.5c0.13,0.09,0.27,0.14,0.42,0.15
					c0.31,0,0.6-0.24,0.88-0.71c0.04-0.07,0.12-0.23,0.25-0.48c0.12-0.24,0.27-0.54,0.44-0.88c0.17-0.34,0.34-0.69,0.52-1.04
					c0.18-0.36,0.34-0.69,0.49-1s0.32-0.66,0.51-1.05c0.06-0.01,0.14-0.01,0.25-0.02s0.23,0,0.37,0.02
					c0.23,0.02,0.48,0.06,0.74,0.14c0.26,0.07,0.49,0.19,0.68,0.35c0.19,0.16,0.3,0.37,0.33,0.63c0.02,0.14,0.03,0.37,0.04,0.69
					c0.01,0.32,0.01,0.7,0.01,1.13c0,0.44,0,0.9,0,1.39s0,0.97-0.01,1.44c0,0.47-0.01,0.91-0.01,1.31c0,0.4-0.01,0.72-0.01,0.98
					C59.04,91.76,59.04,91.91,59.04,91.96z"/>
				<path class="st4" d="M69.92,90.93c0.1,0.24,0.24,0.47,0.42,0.69c0.18,0.22,0.34,0.38,0.47,0.49c-0.2,0.41-0.44,0.72-0.73,0.91
					c-0.24,0.16-0.5,0.25-0.77,0.27c-0.15,0.02-0.32,0-0.51-0.04c-0.19-0.04-0.39-0.16-0.59-0.35c-0.2-0.19-0.4-0.51-0.6-0.94
					c-0.06-0.14-0.19-0.24-0.39-0.3c-0.2-0.06-0.41-0.09-0.63-0.11c-0.22-0.01-0.41-0.02-0.55-0.02c-0.14,0-0.31,0-0.52,0.01
					c-0.2,0.01-0.39,0.04-0.55,0.1c-0.17,0.06-0.27,0.16-0.3,0.31c-0.03,0.13-0.04,0.27-0.01,0.41c0.02,0.14,0.08,0.23,0.16,0.27
					c-0.14,0.13-0.28,0.25-0.42,0.35c-0.14,0.1-0.28,0.18-0.42,0.24c-0.17,0.07-0.35,0.11-0.54,0.11c-0.19,0-0.4-0.04-0.63-0.12
					c-0.11-0.04-0.22-0.12-0.34-0.22c-0.12-0.11-0.19-0.26-0.24-0.45c-0.04-0.19-0.01-0.43,0.1-0.72c0.01-0.02,0.05-0.16,0.12-0.4
					s0.17-0.56,0.29-0.95c0.12-0.39,0.25-0.83,0.4-1.31c0.15-0.48,0.29-0.98,0.45-1.49c0.15-0.51,0.3-1,0.45-1.47
					c0.14-0.47,0.28-0.9,0.39-1.28c0.12-0.38,0.24-0.8,0.37-1.24c0.07-0.04,0.21-0.09,0.42-0.16c0.2-0.06,0.42-0.1,0.65-0.11
					c0.26-0.02,0.51,0.02,0.75,0.1s0.43,0.25,0.57,0.5c0.06,0.1,0.14,0.29,0.26,0.57c0.12,0.28,0.25,0.62,0.41,1.02
					c0.16,0.4,0.32,0.82,0.5,1.27c0.17,0.45,0.35,0.9,0.52,1.34c0.17,0.44,0.33,0.86,0.47,1.24c0.14,0.38,0.26,0.7,0.36,0.96
					C69.82,90.68,69.89,90.85,69.92,90.93z M66,89.32c0.22-0.02,0.34-0.08,0.38-0.19c0.04-0.11,0.06-0.23,0.07-0.37
					c0-0.09-0.01-0.2-0.04-0.34c-0.03-0.13-0.07-0.25-0.12-0.35c-0.05-0.1-0.12-0.16-0.21-0.16c-0.12,0-0.24,0.08-0.38,0.24
					c-0.14,0.16-0.21,0.33-0.23,0.49c-0.03,0.16-0.01,0.31,0.04,0.46C65.57,89.26,65.73,89.33,66,89.32z"/>
				<path class="st4" d="M74.6,88.07c0.07,0,0.25,0,0.52,0.01c0.27,0,0.59,0.01,0.98,0.01s0.78,0,1.19,0s0.8,0,1.16-0.01
					c0.36,0,0.76-0.01,1.21-0.01c0,0.27-0.01,0.5-0.03,0.7c-0.02,0.2-0.05,0.4-0.09,0.6c-0.04,0.2-0.11,0.38-0.19,0.53
					c-0.09,0.15-0.2,0.24-0.34,0.26c-0.13,0.02-0.35,0.03-0.65,0.04c-0.3,0.01-0.64,0.02-1.01,0.02c-0.37,0-0.74,0-1.1-0.01
					c-0.36-0.01-0.67-0.02-0.93-0.04c-0.26-0.02-0.41-0.04-0.46-0.06c-0.07-0.03-0.14-0.12-0.21-0.27
					c-0.06-0.15-0.12-0.32-0.16-0.53c-0.05-0.2-0.07-0.4-0.08-0.59c-0.01-0.19,0-0.35,0.03-0.48C74.46,88.12,74.52,88.06,74.6,88.07
					z"/>
				<path class="st4" d="M87.21,83.3c0.49,0,0.96,0.08,1.41,0.25c0.45,0.17,0.83,0.4,1.14,0.68c0.31,0.28,0.5,0.58,0.55,0.91
					c0.04,0.22,0.01,0.45-0.09,0.72c-0.1,0.26-0.26,0.49-0.47,0.68c-0.22,0.2-0.48,0.3-0.78,0.32c-0.11,0-0.24-0.01-0.41-0.04
					c-0.17-0.03-0.33-0.07-0.48-0.15c-0.15-0.07-0.28-0.18-0.37-0.32c0.12-0.07,0.21-0.14,0.25-0.21c0.04-0.07,0.05-0.15,0.04-0.22
					c-0.03-0.17-0.13-0.3-0.29-0.41c-0.16-0.11-0.36-0.17-0.59-0.2c-0.13-0.02-0.29-0.01-0.46,0.01c-0.17,0.02-0.33,0.08-0.48,0.17
					c-0.15,0.1-0.25,0.25-0.3,0.47c-0.03,0.12-0.03,0.26,0.02,0.4c0.05,0.15,0.16,0.28,0.34,0.41c0.18,0.13,0.46,0.24,0.83,0.33
					c0.57,0.13,1.1,0.28,1.6,0.44c0.49,0.16,0.93,0.35,1.3,0.58c0.37,0.23,0.66,0.52,0.86,0.86c0.2,0.34,0.3,0.77,0.28,1.29
					c-0.01,0.34-0.1,0.7-0.27,1.07c-0.17,0.37-0.43,0.72-0.76,1.04c-0.33,0.32-0.74,0.58-1.22,0.78c-0.48,0.2-1.03,0.3-1.64,0.3
					c-0.39,0-0.79-0.03-1.21-0.1c-0.41-0.07-0.81-0.17-1.18-0.31c-0.37-0.14-0.69-0.33-0.98-0.56c-0.25-0.22-0.43-0.49-0.53-0.81
					c-0.1-0.32-0.13-0.65-0.07-0.98c0.06-0.33,0.21-0.61,0.44-0.84c0.24-0.23,0.57-0.36,0.99-0.39c-0.08,0.25-0.04,0.49,0.14,0.73
					c0.18,0.24,0.45,0.44,0.8,0.6c0.36,0.16,0.75,0.26,1.17,0.29c0.44,0.03,0.82,0.02,1.15-0.05c0.33-0.07,0.51-0.2,0.54-0.41
					c0.04-0.25-0.01-0.45-0.15-0.6c-0.14-0.15-0.34-0.26-0.58-0.34c-0.25-0.08-0.52-0.14-0.81-0.2s-0.56-0.11-0.81-0.17
					c-0.33-0.09-0.67-0.21-1-0.35c-0.34-0.15-0.64-0.33-0.92-0.55c-0.28-0.22-0.5-0.5-0.68-0.82c-0.17-0.32-0.27-0.7-0.27-1.13
					c-0.01-0.51,0.1-0.96,0.31-1.35c0.22-0.39,0.51-0.73,0.88-1c0.37-0.27,0.8-0.47,1.27-0.61C86.23,83.37,86.71,83.3,87.21,83.3z"
					/>
				<path class="st4" d="M101.38,84.57c0.02,0.19,0.04,0.5,0.07,0.93c0.03,0.43,0.05,0.92,0.07,1.47c0.02,0.56,0.02,1.13,0.02,1.71
					s-0.02,1.14-0.06,1.66c-0.04,0.52-0.1,0.96-0.19,1.31c-0.15,0.57-0.56,1.01-1.24,1.32c-0.68,0.31-1.53,0.46-2.56,0.46
					c-0.69,0-1.27-0.13-1.75-0.39c-0.48-0.26-0.85-0.61-1.11-1.06c-0.26-0.45-0.41-0.97-0.44-1.56c-0.02-0.29-0.03-0.66-0.04-1.11
					c-0.01-0.45-0.01-0.94-0.02-1.47c0-0.53-0.01-1.05-0.01-1.56c0-0.51,0-0.98,0.01-1.41c0-0.43,0.01-0.9,0.01-1.41
					c0.09-0.02,0.25-0.02,0.48-0.01c0.23,0.01,0.47,0.05,0.71,0.11c0.28,0.07,0.54,0.18,0.78,0.34c0.24,0.16,0.37,0.39,0.4,0.68
					c0.02,0.25,0.03,0.62,0.01,1.11c-0.02,0.49-0.04,1.06-0.05,1.69c-0.01,0.63,0,1.29,0.04,1.97c0.01,0.14,0.01,0.3,0.01,0.49
					c0,0.18,0.03,0.36,0.08,0.54c0.05,0.17,0.17,0.32,0.34,0.44c0.17,0.12,0.43,0.17,0.79,0.17c0.36,0,0.63-0.05,0.81-0.15
					c0.19-0.1,0.32-0.24,0.4-0.41c0.08-0.17,0.13-0.38,0.16-0.61c0.02-0.23,0.04-0.48,0.06-0.75c0.02-0.17,0.02-0.43,0.02-0.77
					c0-0.34-0.01-0.72-0.02-1.14c-0.01-0.42-0.02-0.85-0.04-1.28c-0.02-0.43-0.03-0.83-0.05-1.19c-0.02-0.36-0.03-0.77-0.05-1.22
					c0.09-0.02,0.25-0.02,0.48-0.01c0.23,0.01,0.47,0.05,0.73,0.11c0.28,0.07,0.54,0.18,0.77,0.34
					C101.21,84.05,101.34,84.28,101.38,84.57z"/>
				<path class="st4" d="M108.49,83.3c0.49,0,0.96,0.08,1.41,0.25c0.45,0.17,0.83,0.4,1.14,0.68c0.31,0.28,0.5,0.58,0.55,0.91
					c0.04,0.22,0.01,0.45-0.09,0.72c-0.1,0.26-0.26,0.49-0.47,0.68c-0.22,0.2-0.48,0.3-0.78,0.32c-0.11,0-0.24-0.01-0.41-0.04
					c-0.17-0.03-0.33-0.07-0.48-0.15c-0.15-0.07-0.28-0.18-0.37-0.32c0.12-0.07,0.21-0.14,0.25-0.21c0.04-0.07,0.05-0.15,0.04-0.22
					c-0.03-0.17-0.13-0.3-0.29-0.41c-0.16-0.11-0.36-0.17-0.59-0.2c-0.13-0.02-0.29-0.01-0.46,0.01s-0.33,0.08-0.48,0.17
					c-0.15,0.1-0.25,0.25-0.3,0.47c-0.03,0.12-0.03,0.26,0.02,0.4c0.05,0.15,0.16,0.28,0.34,0.41c0.18,0.13,0.46,0.24,0.83,0.33
					c0.57,0.13,1.1,0.28,1.6,0.44c0.49,0.16,0.93,0.35,1.3,0.58c0.37,0.23,0.66,0.52,0.86,0.86c0.2,0.34,0.3,0.77,0.28,1.29
					c-0.01,0.34-0.1,0.7-0.27,1.07c-0.17,0.37-0.43,0.72-0.76,1.04c-0.33,0.32-0.74,0.58-1.22,0.78c-0.48,0.2-1.03,0.3-1.64,0.3
					c-0.39,0-0.79-0.03-1.21-0.1c-0.41-0.07-0.81-0.17-1.18-0.31c-0.37-0.14-0.69-0.33-0.98-0.56c-0.25-0.22-0.43-0.49-0.53-0.81
					c-0.1-0.32-0.13-0.65-0.07-0.98c0.06-0.33,0.21-0.61,0.44-0.84c0.24-0.23,0.57-0.36,0.99-0.39c-0.08,0.25-0.04,0.49,0.14,0.73
					c0.18,0.24,0.45,0.44,0.8,0.6c0.36,0.16,0.75,0.26,1.17,0.29c0.44,0.03,0.82,0.02,1.15-0.05c0.33-0.07,0.51-0.2,0.54-0.41
					c0.04-0.25-0.01-0.45-0.15-0.6c-0.14-0.15-0.34-0.26-0.58-0.34c-0.25-0.08-0.52-0.14-0.81-0.2s-0.56-0.11-0.81-0.17
					c-0.33-0.09-0.67-0.21-1-0.35c-0.34-0.15-0.64-0.33-0.92-0.55c-0.28-0.22-0.5-0.5-0.68-0.82c-0.17-0.32-0.27-0.7-0.27-1.13
					c-0.01-0.51,0.1-0.96,0.31-1.35c0.22-0.39,0.51-0.73,0.88-1c0.37-0.27,0.8-0.47,1.27-0.61C107.51,83.37,107.99,83.3,108.49,83.3
					z"/>
				<path class="st4" d="M123.54,92.07c0.01,0.15,0.03,0.3,0.07,0.46c0.04,0.16,0.08,0.3,0.14,0.42c-0.03,0.03-0.12,0.09-0.26,0.17
					c-0.14,0.08-0.31,0.16-0.51,0.22c-0.2,0.07-0.41,0.09-0.63,0.07c-0.32-0.02-0.59-0.16-0.8-0.4c-0.21-0.24-0.32-0.56-0.32-0.94
					c-0.01-0.08-0.01-0.17-0.01-0.26c0-0.09,0-0.21,0-0.35c0.01-0.37-0.07-0.68-0.22-0.95c-0.16-0.27-0.37-0.48-0.63-0.62
					c-0.27-0.14-0.56-0.22-0.87-0.22c-0.46,0-0.85,0.14-1.18,0.41c-0.33,0.27-0.51,0.67-0.54,1.19c0,0.07,0.01,0.22,0.02,0.42
					c0.01,0.21,0.03,0.41,0.06,0.62c0.02,0.21,0.05,0.36,0.07,0.45c-0.09,0.1-0.23,0.2-0.41,0.3c-0.18,0.1-0.37,0.18-0.57,0.24
					c-0.2,0.06-0.37,0.07-0.52,0.05c-0.22-0.04-0.44-0.19-0.65-0.45s-0.32-0.58-0.32-0.96c0-0.07,0-0.28-0.01-0.63
					c0-0.34-0.01-0.77-0.01-1.29c0-0.51-0.01-1.07-0.01-1.66c0-0.59-0.01-1.18-0.01-1.76c0-0.58-0.01-1.11-0.01-1.59
					c0-0.48-0.01-1.01-0.01-1.59c0.09-0.02,0.25-0.02,0.48-0.01c0.23,0.01,0.47,0.05,0.73,0.11c0.28,0.07,0.54,0.18,0.77,0.34
					c0.23,0.16,0.36,0.39,0.4,0.68c0.02,0.14,0.03,0.29,0.04,0.46c0.01,0.17,0.01,0.37,0.01,0.61c0,0.32,0.07,0.62,0.22,0.9
					c0.15,0.28,0.35,0.5,0.62,0.65c0.26,0.16,0.54,0.23,0.85,0.22c0.44-0.02,0.78-0.16,1.02-0.42c0.24-0.27,0.42-0.65,0.54-1.16
					c0.03-0.14,0.06-0.34,0.07-0.6c0.02-0.26,0.03-0.53,0.03-0.8c0-0.27,0.01-0.6,0.01-0.98c0.09-0.02,0.24-0.02,0.45-0.01
					c0.21,0.01,0.43,0.04,0.66,0.09c0.29,0.06,0.57,0.17,0.83,0.33c0.26,0.16,0.41,0.4,0.44,0.72c0.02,0.16,0.03,0.41,0.04,0.76
					c0.01,0.35,0.01,0.75,0.01,1.21c0,0.46-0.01,0.95-0.02,1.47c-0.01,0.52-0.02,1.03-0.02,1.54c-0.01,0.51-0.01,0.98-0.01,1.42
					C123.53,91.41,123.53,91.77,123.54,92.07z"/>
				<path class="st4" d="M127.83,93.38c-0.36-0.07-0.61-0.31-0.75-0.72c-0.15-0.41-0.22-0.93-0.22-1.54c0-0.07,0-0.26-0.01-0.56
					c0-0.3-0.01-0.67-0.01-1.11c0-0.44-0.01-0.92-0.01-1.44c0-0.51-0.01-1.03-0.02-1.54c-0.01-0.51-0.02-0.99-0.02-1.42
					c-0.01-0.44-0.02-0.79-0.03-1.08c-0.01-0.28-0.02-0.45-0.03-0.51c0.12-0.02,0.32-0.03,0.58-0.02c0.26,0.01,0.53,0.05,0.82,0.12
					c0.29,0.07,0.54,0.19,0.75,0.35c0.22,0.16,0.34,0.38,0.37,0.67c0.02,0.13,0.03,0.36,0.04,0.68c0.01,0.32,0.01,0.7,0.02,1.13
					c0,0.44,0.01,0.9,0.01,1.39c0,0.49,0,0.97,0,1.45s0,0.92,0,1.32c0,0.4,0,0.74,0.01,1.01c0,0.27,0.01,0.43,0.02,0.49
					c0.02,0.17,0.05,0.3,0.1,0.38c0.05,0.08,0.1,0.18,0.16,0.29c-0.21,0.22-0.46,0.41-0.77,0.55
					C128.53,93.39,128.2,93.43,127.83,93.38z"/>
			</g>
		</g>
		<polygon style="clip-path:url(#SVGID_00000158722091383936340060000014914285572016960406_);fill:#06436B;" points="-15.15,92.24 
			-76.39,132.46 46.1,132.46 		"/>
		<polygon style="clip-path:url(#SVGID_00000158722091383936340060000014914285572016960406_);fill:#06436B;" points="28.9,104.77 
			-42.82,151.86 100.62,151.86 		"/>
		<polygon style="clip-path:url(#SVGID_00000158722091383936340060000014914285572016960406_);fill:#06436B;" points="137.07,94.58 
			48.1,153 226.04,153 		"/>
	</g>
	<g>
		<defs>
			<rect id="SVGID_00000055668841021198882550000000170290951623380145_" width="150" height="150"/>
		</defs>
		<clipPath id="SVGID_00000042721614166019537850000011800963323188204453_">
			<use xlink:href="#SVGID_00000055668841021198882550000000170290951623380145_"  style="overflow:visible;"/>
		</clipPath>
		<path style="clip-path:url(#SVGID_00000042721614166019537850000011800963323188204453_);fill:#FFFFFF;" d="M-286.93,144.94
			c4.34,2.6,8.83,3.55,13.42,0.8c2.84-1.7,5.47-2.87,8.91-2.22c2.54,0.48,4.32,2.28,6.66,3.21c2.38,0.95,5.29,1.02,7.72,0.22
			c2.28-0.75,4.03-2.54,6.34-3.21c3.46-1,6.48-0.07,9.4,1.73c2.18,1.34,4.31,2.07,6.91,1.99c2.51-0.08,4.43-0.97,6.52-2.26
			c2.94-1.8,6.41-2.51,9.73-1.2c2.16,0.86,3.88,2.52,6.17,3.12c2.32,0.6,4.98,0.49,7.21-0.42c3.24-1.32,5.29-3.51,9.09-3.35
			c3.4,0.14,5.38,2.19,8.34,3.38c2.57,1.03,5.75,1.03,8.32,0c3.15-1.26,5.11-3.29,8.75-3.39c3.31,0.09,5.16,1.65,7.95,3.03
			c2.24,1.1,4.88,1.37,7.32,0.89c2.34-0.46,4.02-1.94,6.11-2.96c3.21-1.57,6.99-1.17,9.99,0.63c4.34,2.6,8.83,3.55,13.42,0.8
			c2.84-1.7,5.47-2.87,8.91-2.22c2.54,0.48,4.32,2.28,6.66,3.21c2.38,0.95,5.29,1.02,7.72,0.22c2.28-0.75,4.03-2.54,6.34-3.21
			c3.46-1,6.48-0.07,9.4,1.73c2.18,1.34,4.31,2.07,6.91,1.99c2.51-0.08,4.43-0.97,6.52-2.26c2.94-1.8,6.41-2.51,9.73-1.2
			c2.16,0.86,3.88,2.52,6.17,3.12c2.32,0.6,4.98,0.49,7.21-0.42c3.24-1.32,5.29-3.51,9.09-3.35c3.4,0.14,5.38,2.19,8.34,3.38
			c2.57,1.03,5.75,1.03,8.32,0c3.15-1.26,5.11-3.29,8.75-3.39c3.31,0.09,5.16,1.65,7.95,3.03c2.24,1.1,4.88,1.37,7.32,0.89
			c2.34-0.46,4.02-1.94,6.11-2.96c3.21-1.57,6.99-1.17,9.99,0.63c4.34,2.6,8.83,3.55,13.42,0.8c2.84-1.7,5.47-2.87,8.91-2.22
			c2.54,0.48,4.32,2.28,6.66,3.21c2.38,0.95,5.29,1.02,7.72,0.22c2.28-0.75,4.03-2.54,6.34-3.21c3.46-1,6.48-0.07,9.4,1.73
			c2.18,1.34,4.31,2.07,6.91,1.99c2.51-0.08,4.43-0.97,6.52-2.26c2.94-1.8,6.41-2.51,9.73-1.2c2.16,0.86,3.88,2.52,6.17,3.12
			c2.32,0.6,4.98,0.49,7.21-0.42c3.24-1.32,5.29-3.51,9.09-3.35c3.4,0.14,5.38,2.19,8.34,3.38c2.57,1.03,5.75,1.03,8.32,0
			c3.15-1.26,5.11-3.29,8.75-3.39c3.31,0.09,5.16,1.65,7.95,3.03c2.24,1.1,4.88,1.37,7.32,0.89c2.34-0.46,4.02-1.94,6.11-2.96
			c3.21-1.57,6.99-1.17,9.99,0.63c4.34,2.6,8.83,3.55,13.42,0.8c2.84-1.7,5.47-2.87,8.91-2.22c2.54,0.48,4.32,2.28,6.66,3.21
			c2.38,0.95,5.29,1.02,7.72,0.22c2.28-0.75,4.03-2.54,6.34-3.21c3.46-1,6.48-0.07,9.4,1.73c2.18,1.34,4.31,2.07,6.91,1.99
			c2.51-0.08,4.43-0.97,6.52-2.26c2.94-1.8,6.41-2.51,9.73-1.2c2.16,0.86,3.88,2.52,6.17,3.12c2.32,0.6,4.98,0.49,7.21-0.42
			c3.24-1.32,5.29-3.51,9.09-3.35c3.4,0.14,5.38,2.19,8.34,3.38c2.57,1.03,5.75,1.03,8.32,0c3.15-1.26,5.11-3.29,8.75-3.39
			c3.31,0.09,5.16,1.65,7.95,3.03c2.24,1.1,4.88,1.37,7.32,0.89c2.07-0.4,3.62-1.61,5.4-2.59v-1.05c-0.79,0.4-1.58,0.86-2.42,1.35
			c-3.31,1.94-7.37,1.94-10.68,0c-2.54-1.49-4.53-2.58-7.56-2.67c-2.57,0.07-4.55,0.79-6.71,2.14c-2.88,1.79-6.13,2.64-9.48,1.51
			c-2.27-0.76-4.02-2.53-6.34-3.21c-2.39-0.7-5.18-0.61-7.5,0.33c-2.55,1.04-4.39,2.92-7.24,3.26c-3.5,0.42-5.83-0.92-8.71-2.56
			c-4.61-2.63-8.98-1.28-13.21,1.19c-3.03,1.77-6.85,2-10.01,0.38c-2.12-1.08-3.79-2.49-6.21-2.89c-2.45-0.4-5.01-0.09-7.22,1.06
			c-2.77,1.45-4.75,3.03-8.11,2.9c-3.19-0.13-5.06-1.86-7.78-3.13c-2.26-1.06-4.97-1.26-7.4-0.7c-2.28,0.52-3.95,2.06-6.03,3.01
			c-3.16,1.44-6.84,1-9.76-0.75c-2.53-1.51-4.7-2.62-7.75-2.53c-2.83,0.09-4.8,1.28-7.16,2.66c-3.31,1.94-7.37,1.94-10.68,0
			c-2.54-1.49-4.53-2.58-7.56-2.67c-2.57,0.07-4.55,0.79-6.71,2.14c-2.88,1.79-6.13,2.64-9.48,1.51c-2.27-0.76-4.02-2.53-6.34-3.21
			c-2.39-0.7-5.18-0.61-7.5,0.33c-2.55,1.04-4.39,2.92-7.24,3.26c-3.5,0.42-5.83-0.92-8.71-2.56c-4.61-2.63-8.98-1.28-13.21,1.19
			c-3.03,1.77-6.85,2-10.01,0.38c-2.12-1.08-3.79-2.49-6.21-2.89c-2.45-0.4-5.01-0.09-7.22,1.06c-2.77,1.45-4.75,3.03-8.11,2.9
			c-3.19-0.13-5.06-1.86-7.78-3.13c-2.26-1.06-4.97-1.26-7.4-0.7c-2.28,0.52-3.95,2.06-6.03,3.01c-3.16,1.44-6.84,1-9.76-0.75
			c-2.53-1.51-4.7-2.62-7.75-2.53c-2.83,0.09-4.8,1.28-7.16,2.66c-3.31,1.94-7.37,1.94-10.68,0c-2.54-1.49-4.53-2.58-7.56-2.67
			c-2.57,0.07-4.55,0.79-6.71,2.14c-2.88,1.79-6.13,2.64-9.48,1.51c-2.27-0.76-4.02-2.53-6.34-3.21c-2.39-0.7-5.18-0.61-7.5,0.33
			c-2.55,1.04-4.39,2.92-7.24,3.26c-3.5,0.42-5.83-0.92-8.71-2.56c-4.61-2.63-8.98-1.28-13.21,1.19c-3.03,1.77-6.85,2-10.01,0.38
			c-2.12-1.08-3.79-2.49-6.21-2.89c-2.45-0.4-5.01-0.09-7.22,1.06c-2.77,1.45-4.75,3.03-8.11,2.9c-3.19-0.13-5.06-1.86-7.78-3.13
			c-2.26-1.06-4.97-1.26-7.4-0.7c-2.28,0.52-3.95,2.06-6.03,3.01c-3.16,1.44-6.84,1-9.76-0.75c-2.53-1.51-4.7-2.62-7.75-2.53
			c-2.83,0.09-4.8,1.28-7.16,2.66c-3.31,1.94-7.37,1.94-10.68,0c-2.54-1.49-4.53-2.58-7.56-2.67c-2.57,0.07-4.55,0.79-6.71,2.14
			c-2.88,1.79-6.13,2.64-9.48,1.51c-2.27-0.76-4.02-2.53-6.34-3.21c-2.39-0.7-5.18-0.61-7.5,0.33c-2.55,1.04-4.39,2.92-7.24,3.26
			c-3.5,0.42-5.83-0.92-8.71-2.56c-4.61-2.63-8.98-1.28-13.21,1.19c-3.03,1.77-6.85,2-10.01,0.38c-2.12-1.08-3.79-2.49-6.21-2.89
			c-2.45-0.4-5.01-0.09-7.22,1.06c-2.77,1.45-4.75,3.03-8.11,2.9c-3.19-0.13-5.06-1.86-7.78-3.13c-2.26-1.06-4.97-1.26-7.4-0.7
			c-2.28,0.52-3.95,2.06-6.03,3.01c-3.16,1.44-6.84,1-9.76-0.75c-2.53-1.51-4.7-2.62-7.75-2.53c-1.83,0.05-3.3,0.57-4.74,1.3v1.05
			c0.23-0.13,0.47-0.25,0.71-0.37C-293.71,142.74-289.94,143.14-286.93,144.94z"/>
		<path style="clip-path:url(#SVGID_00000042721614166019537850000011800963323188204453_);fill:#FFFFFF;" d="M-290.93,138.45
			c4.34,2.6,8.83,3.55,13.42,0.8c2.84-1.7,5.47-2.87,8.91-2.22c2.54,0.48,4.32,2.28,6.66,3.21c2.38,0.95,5.29,1.02,7.72,0.22
			c2.28-0.75,4.03-2.54,6.34-3.21c3.46-1,6.48-0.07,9.4,1.73c2.18,1.34,4.31,2.07,6.91,1.99c2.51-0.08,4.43-0.97,6.52-2.26
			c2.94-1.8,6.41-2.51,9.73-1.2c2.16,0.86,3.88,2.52,6.17,3.12c2.32,0.6,4.98,0.49,7.21-0.42c3.24-1.32,5.29-3.51,9.09-3.35
			c3.4,0.14,5.38,2.19,8.34,3.38c2.57,1.03,5.75,1.03,8.32,0c3.15-1.26,5.11-3.29,8.75-3.39c3.31,0.09,5.16,1.65,7.95,3.03
			c2.24,1.1,4.88,1.37,7.32,0.89c2.34-0.46,4.02-1.94,6.11-2.96c3.21-1.57,6.99-1.17,9.99,0.63c4.34,2.6,8.83,3.55,13.42,0.8
			c2.84-1.7,5.47-2.87,8.91-2.22c2.54,0.48,4.32,2.28,6.66,3.21c2.38,0.95,5.29,1.02,7.72,0.22c2.28-0.75,4.03-2.54,6.34-3.21
			c3.46-1,6.48-0.07,9.4,1.73c2.18,1.34,4.31,2.07,6.91,1.99c2.51-0.08,4.43-0.97,6.52-2.26c2.94-1.8,6.41-2.51,9.73-1.2
			c2.16,0.86,3.88,2.52,6.17,3.12c2.32,0.6,4.98,0.49,7.21-0.42c3.24-1.32,5.29-3.51,9.09-3.35c3.4,0.14,5.38,2.19,8.34,3.38
			c2.57,1.03,5.75,1.03,8.32,0c3.15-1.26,5.11-3.29,8.75-3.39c3.31,0.09,5.16,1.65,7.95,3.03c2.24,1.1,4.88,1.37,7.32,0.89
			c2.34-0.46,4.02-1.94,6.11-2.96c3.21-1.57,6.99-1.17,9.99,0.63c4.34,2.6,8.83,3.55,13.42,0.8c2.84-1.7,5.47-2.87,8.91-2.22
			c2.54,0.48,4.32,2.28,6.66,3.21c2.38,0.95,5.29,1.02,7.72,0.22c2.28-0.75,4.03-2.54,6.34-3.21c3.46-1,6.48-0.07,9.4,1.73
			c2.18,1.34,4.31,2.07,6.91,1.99c2.51-0.08,4.43-0.97,6.52-2.26c2.94-1.8,6.41-2.51,9.73-1.2c2.16,0.86,3.88,2.52,6.17,3.12
			c2.32,0.6,4.98,0.49,7.21-0.42c3.24-1.32,5.29-3.51,9.09-3.35c3.4,0.14,5.38,2.19,8.34,3.38c2.57,1.03,5.75,1.03,8.32,0
			c3.15-1.26,5.11-3.29,8.75-3.39c3.31,0.09,5.16,1.65,7.95,3.03c2.24,1.1,4.88,1.37,7.32,0.89c2.34-0.46,4.02-1.94,6.11-2.96
			c3.21-1.57,6.99-1.17,9.99,0.63c4.34,2.6,8.83,3.55,13.42,0.8c2.84-1.7,5.47-2.87,8.91-2.22c2.54,0.48,4.32,2.28,6.66,3.21
			c2.38,0.95,5.29,1.02,7.72,0.22c2.28-0.75,4.03-2.54,6.34-3.21c3.46-1,6.48-0.07,9.4,1.73c2.18,1.34,4.31,2.07,6.91,1.99
			c2.51-0.08,4.43-0.97,6.52-2.26c2.94-1.8,6.41-2.51,9.73-1.2c2.16,0.86,3.88,2.52,6.17,3.12c2.32,0.6,4.98,0.49,7.21-0.42
			c3.24-1.32,5.29-3.51,9.09-3.35c3.4,0.14,5.38,2.19,8.34,3.38c2.57,1.03,5.75,1.03,8.32,0c3.15-1.26,5.11-3.29,8.75-3.39
			c3.31,0.09,5.16,1.65,7.95,3.03c2.24,1.1,4.88,1.37,7.32,0.89c2.07-0.4,3.62-1.61,5.4-2.59v-1.05c-0.79,0.4-1.58,0.86-2.42,1.35
			c-3.31,1.94-7.37,1.94-10.68,0c-2.54-1.49-4.53-2.58-7.56-2.67c-2.57,0.07-4.55,0.79-6.71,2.14c-2.88,1.79-6.13,2.64-9.48,1.51
			c-2.27-0.76-4.02-2.53-6.34-3.21c-2.39-0.7-5.18-0.61-7.5,0.33c-2.55,1.04-4.39,2.92-7.24,3.26c-3.5,0.42-5.83-0.92-8.71-2.56
			c-4.61-2.63-8.98-1.28-13.21,1.19c-3.03,1.77-6.85,2-10.01,0.38c-2.12-1.08-3.79-2.49-6.21-2.89c-2.45-0.4-5.01-0.09-7.22,1.06
			c-2.77,1.45-4.75,3.03-8.11,2.9c-3.19-0.13-5.06-1.86-7.78-3.13c-2.26-1.06-4.97-1.26-7.4-0.7c-2.28,0.52-3.95,2.06-6.03,3.01
			c-3.16,1.44-6.84,1-9.76-0.75c-2.53-1.51-4.7-2.62-7.75-2.53c-2.83,0.09-4.8,1.28-7.16,2.66c-3.31,1.94-7.37,1.94-10.68,0
			c-2.54-1.49-4.53-2.58-7.56-2.67c-2.57,0.07-4.55,0.79-6.71,2.14c-2.88,1.79-6.13,2.64-9.48,1.51c-2.27-0.76-4.02-2.53-6.34-3.21
			c-2.39-0.7-5.18-0.61-7.5,0.33c-2.55,1.04-4.39,2.92-7.24,3.26c-3.5,0.42-5.83-0.92-8.71-2.56c-4.61-2.63-8.98-1.28-13.21,1.19
			c-3.03,1.77-6.85,2-10.01,0.38c-2.12-1.08-3.79-2.49-6.21-2.89c-2.45-0.4-5.01-0.09-7.22,1.06c-2.77,1.45-4.75,3.03-8.11,2.9
			c-3.19-0.13-5.06-1.86-7.78-3.13c-2.26-1.06-4.97-1.26-7.4-0.7c-2.28,0.52-3.95,2.06-6.03,3.01c-3.16,1.44-6.84,1-9.76-0.75
			c-2.53-1.51-4.7-2.62-7.75-2.53c-2.83,0.09-4.8,1.28-7.16,2.66c-3.31,1.94-7.37,1.94-10.68,0c-2.54-1.49-4.53-2.58-7.56-2.67
			c-2.57,0.07-4.55,0.79-6.71,2.14c-2.88,1.79-6.13,2.64-9.48,1.51c-2.27-0.76-4.02-2.53-6.34-3.21c-2.39-0.7-5.18-0.61-7.5,0.33
			c-2.55,1.04-4.39,2.92-7.24,3.26c-3.5,0.42-5.83-0.92-8.71-2.56c-4.61-2.63-8.98-1.28-13.21,1.19c-3.03,1.77-6.85,2-10.01,0.38
			c-2.12-1.08-3.79-2.49-6.21-2.89c-2.45-0.4-5.01-0.09-7.22,1.06c-2.77,1.45-4.75,3.03-8.11,2.9c-3.19-0.13-5.06-1.86-7.78-3.13
			c-2.26-1.06-4.97-1.26-7.4-0.7c-2.28,0.52-3.95,2.06-6.03,3.01c-3.16,1.44-6.84,1-9.76-0.75c-2.53-1.51-4.7-2.62-7.75-2.53
			c-2.83,0.09-4.8,1.28-7.16,2.66c-3.31,1.94-7.37,1.94-10.68,0c-2.54-1.49-4.53-2.58-7.56-2.67c-2.57,0.07-4.55,0.79-6.71,2.14
			c-2.88,1.79-6.13,2.64-9.48,1.51c-2.27-0.76-4.02-2.53-6.34-3.21c-2.39-0.7-5.18-0.61-7.5,0.33c-2.55,1.04-4.39,2.92-7.24,3.26
			c-3.5,0.42-5.83-0.92-8.71-2.56c-4.61-2.63-8.98-1.28-13.21,1.19c-3.03,1.77-6.85,2-10.01,0.38c-2.12-1.08-3.79-2.49-6.21-2.89
			c-2.45-0.4-5.01-0.09-7.22,1.06c-2.77,1.45-4.75,3.03-8.11,2.9c-3.19-0.13-5.06-1.86-7.78-3.13c-2.26-1.06-4.97-1.26-7.4-0.7
			c-2.28,0.52-3.95,2.06-6.03,3.01c-3.16,1.44-6.84,1-9.76-0.75c-2.53-1.51-4.7-2.62-7.75-2.53c-1.83,0.05-3.3,0.57-4.74,1.3v1.05
			c0.23-0.13,0.47-0.25,0.71-0.37C-297.71,136.25-293.94,136.65-290.93,138.45z"/>
	</g>
</g>
</svg>
